<svg viewBox="0 0 14 14" xmlns="http://www.w3.org/2000/svg"><path d="m7.66124 8.39856c-.0968.0364-.20971.0729-.33328.10127.11985.16386.24097.32546.36681.48406v.00086l.082.0893c.0104-.0738.0183-.14904.0205-.22408.004-.13935-.0436-.33221-.13186-.44773l-.004-.004m-.65884-7.39739c-1.31133 0-2.524.42093-3.51094 1.13448l.0372-.009c.27717-.17651.58068-.31955.88267-.44468.0916-.0372.18356-.073.27669-.10657.91247-.32478 1.89791-.41786 2.84279-.25255.37056.0648.73445.16989 1.08309.31355 1.01751.41872 1.91834 1.16053 2.44472 2.13484.57649 1.06596.76718 2.37318.45469 3.5494-.18395.69344-.53857 1.33481-1.00628 1.87629-.48125.55723-1.08223 1.01148-1.749 1.32589-.68259.32171-1.43381.49456-2.18871.49747l-.0611.20118s-.006.0225-.0145.0558c-.009.0333-.0421.0508-.12071.0433-.0786-.008-.0786-.008-.0786-.008-.054.0656-.10428.13566-.13628.20555l-.004.007c-.057.12372-.092.19814-.0503.30242l.0138.11627s.006.0666-.0436.10205c-.0498.0354-.11202.0246-.11202.0246-.0808.003-.15716.006-.23095.0417l-.002.00086c-.0901.0417-.17616.096-.27074.12814-.091.0312-.19627.0461-.28301-.005l-.0436-.0275-.0443-.01-.10652-.0685s-.0175-.0421.008-.073c.0256-.0309.0648-.0222.0648-.0222l.0551.007.0976-.021.16167-.11312.15341-.13332.10579-.0924c.0436-.041.12515-.12219.19923-.25476.0198-.035.057-.1296.0875-.22871l-.0287-.0201s-.0893-.0443-.069-.10711c.0204-.0629.0391-.0948.0391-.0948-1.23052-.16084-1.95497-.70677-1.95263-.70606.39959.0953.81976.13412 1.24321.12068l-.0213-.029-.009-.0484.0204-.0455.009-.007h.0253l.11655.005.0816-.0119.0421-.0111.0678-.0217.0618-.032.14116-.10657c.0808-.0789.13485-.12591.19443-.22125l.0107-.0229c.0451-.11708.0738-.23984.0991-.35842l.0145-.0729-.008-.005s-.10085-.0826-.0787-.13556c.0222-.053.0362-.0865.0362-.0865l.0524-.18686c.019-.0753.038-.14899.0574-.22424l-.0793.0202-.18699.10056.0451.16758s.008.0321-.0101.0654c-.0184.0334-.0547.0396-.0547.0396l-.0208.002s.0433-.002-.004 0c-.047.002-.0815-.0657-.0815-.0657-.0175-.0691-.0373-.13924-.0573-.20773l-.025-.0291c-.0756.002-.0961-.0513-.10161-.0744l-.002-.00076c-.0801-.0335-.0686-.11249-.0686-.11249s-.0441-.0187-.0488-.0522c-.005-.0335.0845-.13401.0845-.13401l.0246-.006c-.032-.0841-.0663-.16908-.10243-.25324l-.073-.0551-.0777-.0738c-.0787-.006-.0857-.10808-.0857-.10808s-.0542-.0494-.054-.0759c.00016-.0266.051-.0522.051-.0522h.00073l.0529-.0216c-.16576-.31436-.36229-.61751-.58881-.90871-.43426-.55842-.94746-1.06131-1.52549-1.49557-.51055-.38365-1.03277-.69722-1.53328-.92133-.0946.20708-.17771.42084-.248.63762-.18598.57504-.28202 1.17695-.28909 1.78024v.0655c0 3.31324 2.68637 6.00008 5.99925 6.00008 3.31391 0 6.00033-2.68679 6.00033-6.00008.00008-3.31391-2.68632-5.99992-5.9995-5.99992m-1.37135 7.22977-.066.004.0697.17288s.002-.0266.0263-.0373c.024-.0106.13228.023.13228.023.10769.076.22198.10065.34378.0857l.0391-.14218-.1695-.0523-.19814-.0536h-.17761m-.89337-1.40189c.19474.25023.36756.50878.51811.77536l.0007-.006s.0207-.0413.0358-.0455c.0151-.004.0399.0208.0399.0208l.035.0581.0611.056.0867.026.0711.0209.12099.0707.0536.0662.0787.0574c.13475.0782.29489.11021.45061.1094.0748-.12138.18767-.21155.36237-.20334.12884.005.21498.0618.28901.14075.24168-.0455.44092-.18543.61005-.35602l.10098-.0976-.0924-.12214-.14184.003-.12599-.0254-.0692-.0841-.002-.0611s-.0358-.0221-.0436-.0401c-.008-.018.002-.0433.002-.0433l.0167-.0171-.006-.005s-.0287-.0311-.0298-.0507c-.001-.0195.022-.0527.022-.0527l-.0228-.0231-.0495-.0641.10878-.12505.0339-.082-.016-.11541.002-.0596-.0939.0536c.057-.0811.0488-.10501.0481-.17272-.007-.0834.0693-.15268.0714-.15338l-.10429.0387c.0123-.19965.20524-.17129.20379-.1735-.0894-.0603-.0887-.14977-.0878-.15118 0 0 .0469.0447.0815.061s.11432.0231.11432.0231l.11616-.0126.15536-.0313c.2816-.0827.45404.0611.45471.0633l-.022-.0968.0607.0745.19258.13925.0983.16167c.0628.10652.0764.19736.0778.2331.001.0693.001.13932-.0138.20706-.0357.15427-.14893.28979-.28607.36567l-.0846.0716v.0253s-.0381.003.0463-.0179c.0843-.0207.11809.00036.14112.0223.023.022.0328.11385.0328.11385l.0667.0687.048.0558.10509.16539c.0428.0834.0763.17202.10241.26139.0357.12071.0585.24591.0738.37172.0114.0961.0182.19372.0208.29044l-.0007.13191c.23614-.26286.4368-.55343.59403-.87073.28972-.58322.43164-1.23275.43608-1.88301.0185-2.49377-1.89393-4.72246-4.9356-4.18462-.5493.0976-1.09153.30762-1.57204.58837-.51436.30102-.97579.70685-1.31502 1.1978-.17641.25483-.33283.52443-.46839.8045.38215.17802.96088.48414 1.56791.92804.61863.45217 1.14825.95796 1.57365 1.50464m2.04646 2.38886v-.0007c-.0168-.0461-.0723-.17428-.12134-.28826-.0198.10945-.0744.40827-.0738.48487l-.002.0291s-.02.0654-.11619.076c-.0961.0104-.0913.0104-.0913.0104h-.005l-.0357.09c-.0525.15424-.13114.31368-.0763.46941.18327-.14231.42344-.30989.69879-.45883-.038-.0694-.0723-.14072-.10281-.21384l-.0749-.19809"/></svg>